<svg xmlns="http://www.w3.org/2000/svg" width="208" height="111" viewBox="0 0 208 111">
  <defs>
    <style>
      .cls-1 {
        fill: #ff0036;
        fill-rule: evenodd;
      }
    </style>
  </defs>
  <path id="New" class="cls-1" d="M458,144H290a20,20,0,0,1-20-20V53a20,20,0,0,1,20-20H458a20,20,0,0,1,20,20v71A20,20,0,0,1,458,144ZM337.185,54.24H325.842V78.686c0,6.961.891,15.082,1.54,21.463h-0.406l-6-13.259L303.562,54.24H291.328v61.322h11.343V90.95c0-7.044-.891-14.751-1.458-21.38h0.4l6.076,13.176,17.338,32.816h12.153V54.24ZM369.334,68c-10.856,0-21.145,9.364-21.145,24.446,0,15.248,9.884,24.28,22.523,24.28a28.179,28.179,0,0,0,15.879-5.137l-4.051-7.459a18.4,18.4,0,0,1-10.208,3.232c-6.725,0-11.586-3.977-12.558-11.6h27.951a23.077,23.077,0,0,0,.568-5.552C388.293,77.36,381.811,68,369.334,68Zm78.982,1.16L443.374,92.11c-0.892,4.475-1.459,8.95-2.269,13.508H440.7c-0.972-4.558-1.782-9.033-2.836-13.508l-5.671-22.954H421.58L416.151,92.11c-1.134,4.392-1.944,8.95-2.835,13.508h-0.324c-0.81-4.558-1.378-9.033-2.269-13.508l-4.942-22.954h-11.91l11.748,46.406H419.23l4.618-20.22c0.972-4.309,1.621-8.618,2.512-13.507h0.4c0.891,4.889,1.62,9.115,2.592,13.507l4.78,20.22h14.017l11.18-46.406H448.316ZM369.5,77.443c5.834,0,8.588,3.978,8.588,10.276H359.612C360.5,80.923,364.716,77.443,369.5,77.443Z" transform="translate(-270 -33)"/>
</svg>
